<?xml version="1.0" encoding="UTF-8" standalone="no"?><svg xmlns:rdf="http://www.w3.org/1999/02/22-rdf-syntax-ns#" xmlns="http://www.w3.org/2000/svg" height="89.6pt" width="119pt" version="1.1" xmlns:cc="http://creativecommons.org/ns#" xmlns:xlink="http://www.w3.org/1999/xlink" viewBox="0 0 119.48437 89.641617" xmlns:dc="http://purl.org/dc/elements/1.1/"><defs><symbol id="b" overflow="visible"></symbol><symbol id="e" overflow="visible"></symbol><symbol id="a" overflow="visible"></symbol><symbol id="d" overflow="visible"></symbol><symbol id="c" overflow="visible"></symbol><symbol id="f" overflow="visible"><path d="m40.3-8.94-3.27 3.25c-.438.438-.938.656-1.5.656s-1.06-.219-1.5-.656l-30.4-30.4c-.438-.438-.656-.938-.656-1.5s.219-1.06.656-1.5l30.4-30.4c.438-.438.938-.656 1.5-.656s1.06.219 1.5.656l3.27 3.27c.438.438.656.938.656 1.5s-.219 1.06-.656 1.5l-25.7 25.7 25.7 25.7c.438.438.656.945.656 1.52 0 .562-.219 1.06-.656 1.5zm38.6-69.7-24.4 84.3c-.2.55-.5.97-1 1.25s-1 .34-1.5.16l-4.1-1.11c-.5-.17-1-.50-1.3-1-.2-.50-.3-1.04-.1-1.61l24.4-84.3c.164-.570.5-1 1-1.28.508-.281 1.02-.332 1.55-.156l4.05 1.11c.562.180.984.516 1.27 1.02.281.5.336 1.03.172 1.59zm42.9 42.5l-30.7 30.4c-.438.438-.945.656-1.52.656-.562 0-1.06-.219-1.48-.656l-3.27-3.25c-.438-.438-.656-.938-.656-1.5 0-.570.219-1.08.656-1.52l25.7-25.7-25.7-25.7c-.438-.438-.656-.938-.656-1.5s.219-1.06.656-1.5l3.27-3.27c.426-.438.922-.656 1.48-.656.570 0 1.08.219 1.52.656l30.4 30.4c.438.438.656.938.656 1.5s-.219 1.06-.656 1.5z"/></symbol><clipPath><path d="m.859 0h504v184h-504z"/></clipPath><clipPath id="g"><rect y="0" width="505" x="0" height="184"/></clipPath><g clip-path="url(#g)"></g></defs><g fill="#586e75"><g transform="translate(-158 -184)"><use xlink:href="#b" height="100%" width="100%" y="58.919498" x="169.04082" fill="#586e75"/></g><g transform="translate(-158 -184)"><use xlink:href="#b" height="100%" width="100%" y="78.051201" x="160.95474" fill="#586e75"/></g><g transform="translate(-158 -184)"><use xlink:href="#b" height="100%" width="100%" y="116.3147" x="168.28793" fill="#586e75"/></g><g transform="translate(-158 -184)"><use xlink:href="#e" height="100%" width="100%" y="101.9694" x="218.62192" fill="#586e75"/></g><g transform="translate(-158 -184)"><use xlink:href="#a" height="100%" width="100%" y="359.53619" x="167.70871" fill="#586e75"/></g><g transform="translate(-158 -184)"><use xlink:href="#a" height="100%" width="100%" y="359.53619" x="178.67685" fill="#586e75"/></g><g transform="translate(-158 -184)"><use xlink:href="#a" height="100%" width="100%" y="359.53619" x="196.67157" fill="#586e75"/></g><g transform="translate(-158 -184)"><use xlink:href="#a" height="100%" width="100%" y="359.53619" x="273.30353" fill="#586e75"/></g><g transform="translate(-158 -184)"><use xlink:href="#a" height="100%" width="100%" y="359.53619" x="284.27167" fill="#586e75"/></g><g transform="translate(-158 -184)"><use xlink:href="#a" height="100%" width="100%" y="359.53619" x="295.00949" fill="#586e75"/></g><g transform="translate(-158 -184)"><use xlink:href="#a" height="100%" width="100%" y="359.53619" x="310.48468" fill="#586e75"/></g><g transform="translate(-158 -184)"><use xlink:href="#a" height="100%" width="100%" y="359.53619" x="350.51245" fill="#586e75"/></g><g transform="translate(-158 -184)"><use xlink:href="#a" height="100%" width="100%" y="359.53619" x="365.55511" fill="#586e75"/></g><g transform="translate(-158 -184)"><use xlink:href="#a" height="100%" width="100%" y="367.90891" x="196.83926" fill="#586e75"/></g><g transform="translate(-158 -184)"><use xlink:href="#a" height="100%" width="100%" y="367.90891" x="208.93739" fill="#586e75"/></g><g transform="translate(-158 -184)"><use xlink:href="#a" height="100%" width="100%" y="367.90891" x="218.71225" fill="#586e75"/></g><g transform="translate(-158 -184)"><use xlink:href="#a" height="100%" width="100%" y="367.90891" x="233.1002" fill="#586e75"/></g><g transform="translate(-158 -184)"><use xlink:href="#d" height="100%" width="100%" y="393.72491" x="174.5676" fill="#586e75"/></g><g transform="translate(-158 -184)"><use xlink:href="#c" height="100%" width="100%" y="424.5437" x="168.6718" fill="#586e75"/></g><g transform="translate(-158 -184)"><use xlink:href="#a" height="100%" width="100%" y="266.17999" x="289.25339"/><use xlink:href="#a" height="100%" width="100%" y="266.17999" x="290.76727"/><use xlink:href="#a" height="100%" width="100%" y="266.17999" x="292.28116"/></g><g transform="translate(-158 -184)"><use xlink:href="#a" height="100%" width="100%" y="266.17999" x="374.1741"/><use xlink:href="#a" height="100%" width="100%" y="266.17999" x="375.68799"/><use xlink:href="#a" height="100%" width="100%" y="266.17999" x="377.20184"/></g><g transform="translate(-158 -184)"><use xlink:href="#a" height="100%" width="100%" y="266.17999" x="405.50909"/><use xlink:href="#a" height="100%" width="100%" y="266.17999" x="407.02298"/><use xlink:href="#a" height="100%" width="100%" y="266.17999" x="408.53687"/></g><g transform="translate(-158 -184)"><use xlink:href="#a" height="100%" width="100%" y="266.17999" x="423.44769"/><use xlink:href="#a" height="100%" width="100%" y="266.17999" x="424.96158"/></g><g transform="translate(-158 -184)"><use xlink:href="#a" height="100%" width="100%" y="317.1142" x="161.56889" fill="#586e75"/></g><g transform="translate(-158 -184)"><use xlink:href="#a" height="100%" width="100%" y="317.1142" x="164.42961" fill="#586e75"/></g><g transform="translate(-158 -184)"><use xlink:href="#a" height="100%" width="100%" y="317.1142" x="188.86383" fill="#586e75"/></g><g transform="translate(-158 -184)"><use xlink:href="#a" height="100%" width="100%" y="317.1142" x="199.4626" fill="#586e75"/></g><g transform="translate(-158 -184)"><use xlink:href="#a" height="100%" width="100%" y="317.1142" x="202.32332" fill="#586e75"/></g><g transform="translate(-158 -184)"><use xlink:href="#a" height="100%" width="100%" y="317.1142" x="225.8649" fill="#586e75"/></g><g transform="translate(-158 -184)"><use xlink:href="#a" height="100%" width="100%" y="317.1142" x="236.40051" fill="#586e75"/></g><g transform="translate(-158 -184)"><use xlink:href="#a" height="100%" width="100%" y="317.1142" x="239.26123" fill="#586e75"/></g><g transform="translate(-158 -184)"><use xlink:href="#a" height="100%" width="100%" y="317.1142" x="270.19168" fill="#586e75"/></g><g transform="translate(-158 -184)"><use xlink:href="#a" height="100%" width="100%" y="317.1142" x="313.63815" fill="#586e75"/></g><g transform="translate(-158 -184)"><use xlink:href="#f" height="100%" width="100%" y="266.24979" x="155.0312" fill="#586e75"/></g></g></svg>