<svg clip-rule="evenodd" fill-rule="evenodd" stroke-linejoin="round" stroke-miterlimit="1.41421" viewBox="0 0 119 90" xmlns="http://www.w3.org/2000/svg"><path d="m37.18 73.335-3.257 3.237c-.436.435-.934.652-1.494.652s-1.056-.217-1.494-.652l-30.277-30.278c-.436-.435-.653-.933-.653-1.493s.218-1.056.653-1.495l30.277-30.275c.436-.437.934-.654 1.494-.654s1.056.217 1.494.654l3.257 3.256c.436.437.653.935.653 1.494 0 .56-.218 1.056-.653 1.494l-25.596 25.595 25.596 25.595c.436.437.653.942.653 1.515 0 .558-.218 1.054-.653 1.493v-.14zm38.443-69.417-24.301 83.956c-.199.549-.498.967-.996 1.246s-.996.338-1.494.159l-4.083-1.105c-.498-.17-.996-.498-1.295-.996-.199-.498-.299-1.036-.1-1.604l24.302-83.957c.163-.568.498-.996.996-1.275.505-.28 1.015-.33 1.543-.155l4.034 1.105c.56.18.98.514 1.265 1.016.28.498.334 1.026.171 1.584zm42.726 42.327-30.575 30.277c-.437.435-.941.652-1.514.652-.56 0-1.056-.217-1.474-.652l-3.257-3.238c-.436-.435-.653-.933-.653-1.493 0-.567.218-1.075.653-1.513l25.596-25.597-25.596-25.595c-.436-.436-.653-.934-.653-1.495 0-.56.218-1.056.653-1.494l3.257-3.256c.424-.437.918-.653 1.474-.653.568 0 1.075.218 1.514.653l30.276 30.276c.437.437.654.934.654 1.495 0 .56-.218 1.056-.654 1.493z" fill="#586e75" fill-rule="nonzero"/></svg>