<?xml version="1.0" encoding="UTF-8" standalone="no"?><svg xmlns:rdf="http://www.w3.org/1999/02/22-rdf-syntax-ns#" xmlns="http://www.w3.org/2000/svg" height="91.9pt" width="41.8pt" version="1.1" xmlns:cc="http://creativecommons.org/ns#" xmlns:xlink="http://www.w3.org/1999/xlink" viewBox="0 0 41.78125 91.921875" xmlns:dc="http://purl.org/dc/elements/1.1/"><defs><symbol id="b" overflow="visible"></symbol><symbol id="e" overflow="visible"></symbol><symbol id="a" overflow="visible"></symbol><symbol id="d" overflow="visible"></symbol><symbol id="c" overflow="visible"></symbol><symbol id="f" overflow="visible"><path d="m41.8-12.5v8.36c0 1.12-.414 2.11-1.23 2.94-.9.790-1.9 1.2-3 1.2h-33.4c-1.15 0-2.13-.410-2.97-1.23-.820-.84-1.23-1.82-1.23-2.94v-8.36c0-1.13.410-2.11 1.23-2.94.832-.832 1.81-1.25 2.94-1.25h4.19v-25.1h-4.19c-1.12 0-2.11-.410-2.94-1.23-.820-.8-1.23-1.8-1.23-3v-8.36c0-1.12.410-2.1 1.23-2.92.832-.832 1.81-1.25 2.94-1.25h25.1c1.13 0 2.11.418 2.94 1.25.820.824 1.23 1.8 1.23 2.92v37.6h4.19c1.13 0 2.11.418 2.94 1.25.820.824 1.23 1.8 1.23 2.94zm-8.4-75.3v12.5c0 1.14-.414 2.12-1.23 2.95-.824.824-1.8 1.23-2.94 1.23h-16.7c-1.12 0-2.11-.410-2.94-1.23-.824-.832-1.23-1.82-1.23-2.95v-12.5c0-1.13.410-2.11 1.23-2.94.832-.820 1.81-1.23 2.94-1.23h16.7c1.13 0 2.11.414 2.94 1.23.820.824 1.23 1.8 1.23 2.94z"/></symbol><clipPath><path d="m.859 0h504v184h-504z"/></clipPath><clipPath id="g"><rect y="0" width="505" x="0" height="184"/></clipPath><g clip-path="url(#g)"></g></defs><g fill="#586e75"><g transform="translate(-155 -174)"><use xlink:href="#b" height="100%" width="100%" y="58.919498" x="169.04082" fill="#586e75"/></g><g transform="translate(-155 -174)"><use xlink:href="#b" height="100%" width="100%" y="78.051201" x="160.95474" fill="#586e75"/></g><g transform="translate(-155 -174)"><use xlink:href="#b" height="100%" width="100%" y="116.3147" x="168.28793" fill="#586e75"/></g><g transform="translate(-155 -174)"><use xlink:href="#e" height="100%" width="100%" y="101.9694" x="218.62192" fill="#586e75"/></g><g transform="translate(-155 -174)"><use xlink:href="#a" height="100%" width="100%" y="359.53619" x="167.70871" fill="#586e75"/></g><g transform="translate(-155 -174)"><use xlink:href="#a" height="100%" width="100%" y="359.53619" x="178.67685" fill="#586e75"/></g><g transform="translate(-155 -174)"><use xlink:href="#a" height="100%" width="100%" y="359.53619" x="196.67157" fill="#586e75"/></g><g transform="translate(-155 -174)"><use xlink:href="#a" height="100%" width="100%" y="359.53619" x="273.30353" fill="#586e75"/></g><g transform="translate(-155 -174)"><use xlink:href="#a" height="100%" width="100%" y="359.53619" x="284.27167" fill="#586e75"/></g><g transform="translate(-155 -174)"><use xlink:href="#a" height="100%" width="100%" y="359.53619" x="295.00949" fill="#586e75"/></g><g transform="translate(-155 -174)"><use xlink:href="#a" height="100%" width="100%" y="359.53619" x="310.48468" fill="#586e75"/></g><g transform="translate(-155 -174)"><use xlink:href="#a" height="100%" width="100%" y="359.53619" x="350.51245" fill="#586e75"/></g><g transform="translate(-155 -174)"><use xlink:href="#a" height="100%" width="100%" y="359.53619" x="365.55511" fill="#586e75"/></g><g transform="translate(-155 -174)"><use xlink:href="#a" height="100%" width="100%" y="367.90891" x="196.83926" fill="#586e75"/></g><g transform="translate(-155 -174)"><use xlink:href="#a" height="100%" width="100%" y="367.90891" x="208.93739" fill="#586e75"/></g><g transform="translate(-155 -174)"><use xlink:href="#a" height="100%" width="100%" y="367.90891" x="218.71225" fill="#586e75"/></g><g transform="translate(-155 -174)"><use xlink:href="#a" height="100%" width="100%" y="367.90891" x="233.1002" fill="#586e75"/></g><g transform="translate(-155 -174)"><use xlink:href="#d" height="100%" width="100%" y="393.72491" x="167.388" fill="#586e75"/></g><g transform="translate(-155 -174)"><use xlink:href="#c" height="100%" width="100%" y="424.5437" x="168.6718" fill="#586e75"/></g><g transform="translate(-155 -174)"><use xlink:href="#a" height="100%" width="100%" y="266.17999" x="205.52589"/><use xlink:href="#a" height="100%" width="100%" y="266.17999" x="207.03978"/><use xlink:href="#a" height="100%" width="100%" y="266.17999" x="208.55365"/></g><g transform="translate(-155 -174)"><use xlink:href="#a" height="100%" width="100%" y="266.17999" x="240.21001"/><use xlink:href="#a" height="100%" width="100%" y="266.17999" x="241.72388"/><use xlink:href="#a" height="100%" width="100%" y="266.17999" x="243.23776"/></g><g transform="translate(-155 -174)"><use xlink:href="#a" height="100%" width="100%" y="266.17999" x="254.7995"/><use xlink:href="#a" height="100%" width="100%" y="266.17999" x="256.31339"/><use xlink:href="#a" height="100%" width="100%" y="266.17999" x="257.82724"/></g><g transform="translate(-155 -174)"><use xlink:href="#a" height="100%" width="100%" y="266.17999" x="264.36539"/><use xlink:href="#a" height="100%" width="100%" y="266.17999" x="265.87927"/></g><g transform="translate(-155 -174)"><use xlink:href="#a" height="100%" width="100%" y="317.1142" x="157.3826" fill="#586e75"/></g><g transform="translate(-155 -174)"><use xlink:href="#a" height="100%" width="100%" y="317.1142" x="160.24332" fill="#586e75"/></g><g transform="translate(-155 -174)"><use xlink:href="#a" height="100%" width="100%" y="317.1142" x="184.67752" fill="#586e75"/></g><g transform="translate(-155 -174)"><use xlink:href="#a" height="100%" width="100%" y="317.1142" x="196.7485" fill="#586e75"/></g><g transform="translate(-155 -174)"><use xlink:href="#a" height="100%" width="100%" y="317.1142" x="199.60922" fill="#586e75"/></g><g transform="translate(-155 -174)"><use xlink:href="#a" height="100%" width="100%" y="317.1142" x="223.1508" fill="#586e75"/></g><g transform="translate(-155 -174)"><use xlink:href="#a" height="100%" width="100%" y="317.1142" x="233.6864" fill="#586e75"/></g><g transform="translate(-155 -174)"><use xlink:href="#a" height="100%" width="100%" y="317.1142" x="236.54712" fill="#586e75"/></g><g transform="translate(-155 -174)"><use xlink:href="#a" height="100%" width="100%" y="317.1142" x="267.47757" fill="#586e75"/></g><g transform="translate(-155 -174)"><use xlink:href="#a" height="100%" width="100%" y="317.1142" x="310.92404" fill="#586e75"/></g><g transform="translate(-155 -174)"><use xlink:href="#f" height="100%" width="100%" y="266.24979" x="155.0312" fill="#586e75"/></g></g></svg>