<svg viewBox="0 0 42 92" xmlns="http://www.w3.org/2000/svg" fill-rule="evenodd" clip-rule="evenodd" stroke-linejoin="round" stroke-miterlimit="1.41421"><path d="M41.85 79.731v8.358c0 1.12-.415 2.109-1.23 2.939-.9.79-1.9 1.2-3 1.2H4.228c-1.149 0-2.129-.41-2.969-1.23-.82-.84-1.23-1.819-1.23-2.939v-8.358c0-1.13.41-2.11 1.23-2.939.832-.832 1.81-1.25 2.94-1.25h4.188V50.418H4.198c-1.119 0-2.109-.41-2.939-1.23-.82-.8-1.23-1.799-1.23-2.999v-8.358c0-1.12.41-2.1 1.23-2.919.832-.832 1.81-1.25 2.94-1.25h25.093c1.13 0 2.11.418 2.94 1.25.82.823 1.23 1.799 1.23 2.919v37.591h4.188c1.13 0 2.11.418 2.94 1.25.82.824 1.23 1.799 1.23 2.939l.03.12zM33.45 4.449v12.497c0 1.14-.414 2.119-1.229 2.949-.824.824-1.8 1.23-2.94 1.23H12.586c-1.119 0-2.109-.41-2.939-1.23-.824-.832-1.23-1.819-1.23-2.949V4.449c0-1.13.41-2.11 1.23-2.939.832-.82 1.81-1.23 2.94-1.23h16.695c1.13 0 2.11.414 2.94 1.23.82.823 1.23 1.799 1.23 2.939z" fill="rgb(88,110,117)" fill-rule="nonzero"/></svg>