<?xml version="1.0" encoding="UTF-8" standalone="no"?><svg xmlns:rdf="http://www.w3.org/1999/02/22-rdf-syntax-ns#" xmlns="http://www.w3.org/2000/svg" height="106pt" width="106pt" version="1.1" xmlns:cc="http://creativecommons.org/ns#" xmlns:xlink="http://www.w3.org/1999/xlink" viewBox="0 0 106.25 105.93" xmlns:dc="http://purl.org/dc/elements/1.1/"><defs><symbol id="b" overflow="visible"/><symbol id="h" overflow="visible"/><symbol id="a" overflow="visible"/><symbol id="i" overflow="visible"/><symbol id="j" overflow="visible"/><symbol id="g" overflow="visible"><path d="m77-61.8 19-19-6.9-6.9-19 18.9zm28-21.9c1 .8 1 1.8 1 2.9 0 1.2 0 2.2-1 2.9l-83.4 83.3c-.8.74-1.8 1.13-3 1.13-1.1 0-2.1-.39-2.9-1.15l-12.8-12.8c-.77-.8-1.15-1.77-1.15-2.98 0-1.1.38-2.1 1.16-2.9l83.3-83.2c.7-.8 1.7-1.2 2.9-1.2 1.1 0 2.1.4 2.9 1.2zm-86.5-9.4 6.4 2-6.4 1.9-1.9 6.3-2-6.3-6.32-1.9 6.32-2 2-6.3zm22.7 10.5 12.7 3.9-12.7 3.9-3.9 12.7-3.9-12.7-12.7-3.9 12.7-3.9 3.9-12.7zm59.8 30.9 7 2-7 1.9-1.6 6.4-1.9-6.4-6.4-1.9 6.4-2 1.9-6.3zm-41.1-41.4 6.4 2-6.4 1.9-1.9 6.3-1.9-6.3-6.4-1.9 6.4-2 1.9-6.3z"/></symbol><clipPath><rect y="0" width="505" x="0" height="182"/></clipPath></defs><g fill="#586e75" transform="translate(-335 -246)"><use xlink:href="#b" height="100%" width="100%" y="68.288597" x="164.37808"/><use xlink:href="#b" height="100%" width="100%" y="115.6586" x="169.6089"/><use xlink:href="#h" height="100%" width="100%" y="101.4511" x="219.45958"/><use xlink:href="#a" height="100%" width="100%" y="356.54431" x="169.03523"/><use xlink:href="#a" height="100%" width="100%" y="356.54431" x="179.89804"/><use xlink:href="#a" height="100%" width="100%" y="356.54431" x="197.71999"/><use xlink:href="#a" height="100%" width="100%" y="356.54431" x="273.616"/><use xlink:href="#a" height="100%" width="100%" y="356.54431" x="284.47882"/><use xlink:href="#a" height="100%" width="100%" y="356.54431" x="295.11349"/><use xlink:href="#a" height="100%" width="100%" y="356.54431" x="310.44006"/><use xlink:href="#a" height="100%" width="100%" y="356.54431" x="350.08344"/><use xlink:href="#a" height="100%" width="100%" y="356.54431" x="364.98163"/><use xlink:href="#a" height="100%" width="100%" y="364.8367" x="197.88605"/><use xlink:href="#a" height="100%" width="100%" y="364.8367" x="209.86798"/><use xlink:href="#a" height="100%" width="100%" y="364.8367" x="219.54897"/><use xlink:href="#a" height="100%" width="100%" y="364.8367" x="233.79871"/><use xlink:href="#i" height="100%" width="100%" y="390.40469" x="174.4048"/><use xlink:href="#j" height="100%" width="100%" y="420.92749" x="169.9892"/><use xlink:href="#a" height="100%" width="100%" y="264.08469" x="272.828"/><use xlink:href="#a" height="100%" width="100%" y="264.08469" x="274.32733"/><use xlink:href="#a" height="100%" width="100%" y="264.08469" x="275.82669"/><use xlink:href="#a" height="100%" width="100%" y="264.08469" x="346.9823"/><use xlink:href="#a" height="100%" width="100%" y="264.08469" x="348.48163"/><use xlink:href="#a" height="100%" width="100%" y="264.08469" x="349.98099"/><use xlink:href="#a" height="100%" width="100%" y="264.08469" x="374.69949"/><use xlink:href="#a" height="100%" width="100%" y="264.08469" x="376.19885"/><use xlink:href="#a" height="100%" width="100%" y="264.08469" x="377.69818"/><use xlink:href="#a" height="100%" width="100%" y="264.08469" x="390.8074"/><use xlink:href="#a" height="100%" width="100%" y="264.08469" x="392.30673"/><use xlink:href="#a" height="100%" width="100%" y="314.52979" x="162.12531"/><use xlink:href="#a" height="100%" width="100%" y="314.52979" x="164.95854"/><use xlink:href="#a" height="100%" width="100%" y="314.52979" x="189.1581"/><use xlink:href="#a" height="100%" width="100%" y="314.52979" x="202.7439"/><use xlink:href="#a" height="100%" width="100%" y="314.52979" x="205.57715"/><use xlink:href="#a" height="100%" width="100%" y="314.52979" x="228.89265"/><use xlink:href="#a" height="100%" width="100%" y="314.52979" x="241.35869"/><use xlink:href="#a" height="100%" width="100%" y="314.52979" x="244.19194"/><use xlink:href="#a" height="100%" width="100%" y="314.52979" x="274.82535"/><use xlink:href="#a" height="100%" width="100%" y="314.52979" x="317.85458"/><g transform="translate(176,80.9)"><use xlink:href="#g" height="100%" width="100%" y="264.15381" x="156.8251" fill="#586e75"/></g></g></svg>