<svg xmlns="http://www.w3.org/2000/svg" version="1.2" viewBox="0 0 256.687 119.822" height="159.763" width="342.249"><defs><clipPath id="a"><path d="M0 0h256.688v119.82H0zm0 0"/></clipPath></defs><g clip-path="url(#a)"><path d="M220.238 46.922c-20.101 0-36.449 16.351-36.449 36.45 0 16.23-13.207 29.437-29.437 29.437s-29.438-13.207-29.438-29.438V68.18c0-.36-.07-.7-.168-1.028l7.082-12.3h9.488v28.52c0 7.187 5.848 13.034 13.036 13.034 7.187 0 13.03-5.847 13.03-13.035V74.68c1.122-.98 1.845-2.407 1.845-4.008a5.349 5.349 0 1 0-10.7 0c0 1.601.723 3.027 1.844 4.008v8.691c0 3.32-2.7 6.02-6.02 6.02-3.32 0-6.019-2.7-6.019-6.02V51.348a3.508 3.508 0 0 0-3.508-3.508h-8.957l21.313-37.012A5.345 5.345 0 0 0 156.152.234a5.348 5.348 0 0 0-5.347 5.348c0 .61.125 1.18.308 1.727l-55.675 96.687c-3.165 5.52-8.852 8.813-15.211 8.813h-.008c-6.364-.004-12.047-3.301-15.211-8.825L9.555 7.133h14.82l31.063 54.84a5.37 5.37 0 0 0-.376 1.945 5.348 5.348 0 0 0 10.696 0 5.34 5.34 0 0 0-4.094-5.188L29.473 1.898a3.508 3.508 0 0 0-3.051-1.78H3.508c-1.25 0-2.406.667-3.035 1.75a3.501 3.501 0 0 0-.008 3.5l58.457 102.105c4.426 7.73 12.387 12.347 21.297 12.347h.008c8.902 0 16.867-4.61 21.289-12.332l16.386-28.449v4.332c0 20.102 16.352 36.45 36.45 36.45 20.097 0 36.449-16.348 36.449-36.45 0-16.23 13.207-29.433 29.437-29.433s29.438 13.203 29.438 29.433-13.207 29.438-29.438 29.438a29.348 29.348 0 0 1-16.754-5.239c.008-.117.036-.226.036-.343a5.351 5.351 0 0 0-5.348-5.352 5.349 5.349 0 1 0 0 10.7c.074 0 .144-.02.219-.024a36.365 36.365 0 0 0 21.847 7.27c20.098 0 36.45-16.348 36.45-36.45 0-20.098-16.352-36.45-36.45-36.45" fill="rgb(0%,61.177063%,65.490723%)"/></g><path d="M214.219 83.371c0-3.316 2.699-6.02 6.02-6.02 3.32 0 6.019 2.704 6.019 6.02 0 3.32-2.7 6.02-6.02 6.02-3.32 0-6.02-2.7-6.02-6.02m19.052 0c0-7.187-5.844-13.031-13.032-13.031-7.187 0-13.035 5.844-13.035 13.031 0 7.188 5.848 13.035 13.035 13.035 7.188 0 13.032-5.847 13.032-13.035M49.19 10.617l28.2 48.988a3.511 3.511 0 0 0 3.035 1.758h.004c1.25 0 2.41-.672 3.035-1.754L113.78 7.133h13.227L80.21 89.387a5.346 5.346 0 0 0 1.008 10.597 5.355 5.355 0 0 0 5.351-5.351c0-.598-.12-1.164-.304-1.703l49.82-87.57a3.503 3.503 0 0 0-.02-3.497 3.503 3.503 0 0 0-3.03-1.746h-21.278c-1.25 0-2.41.668-3.035 1.754l-28.29 48.961L55.118 6.848c.14-.477.238-.973.238-1.5A5.348 5.348 0 0 0 50.008 0c-.41 0-.805.055-1.188.145a3.52 3.52 0 0 0-1.36.44c-.241.142-.456.313-.655.5-1.297.978-2.149 2.517-2.149 4.263 0 2.675 1.969 4.87 4.535 5.27" fill="rgb(0%,61.177063%,65.490723%)"/></svg>