<svg viewBox="0 0 16 16" xmlns="https://www.w3.org/2000/svg" fill-rule="evenodd" clip-rule="evenodd" stroke-linejoin="round" stroke-miterlimit="1.414"><path d="M16 4c0-2.208-1.792-4-4-4H4C1.792 0 0 1.792 0 4v8c0 2.208 1.792 4 4 4h8c2.208 0 4-1.792 4-4V4z" fill="#7f7f7f"/><path d="M2.191 7.865V5.507h1.673c.486 0 .842.101 1.067.302.225.201.337.493.337.877s-.112.678-.337.882c-.225.204-.581.303-1.067.297H2.191zm-.856-3.078v6.426h.856V8.585h1.962c.647.006 1.138-.159 1.471-.495.333-.336.5-.804.5-1.404 0-.6-.167-1.066-.5-1.399-.333-.333-.824-.5-1.471-.5H1.335zm6.13 1.773v4.653h.765v-2.07c0-.3.03-.565.09-.796.06-.231.156-.428.288-.59.132-.162.306-.285.522-.369.216-.084.477-.126.783-.126v-.81c-.414-.012-.756.072-1.026.252s-.498.459-.684.837h-.018V6.56h-.72zm3.87 2.331c0-.282.037-.532.112-.751.075-.219.179-.404.311-.554a1.32 1.32 0 0 1 .463-.342c.177-.078.365-.117.563-.117.198 0 .385.039.562.117.177.078.332.192.464.342.132.15.235.335.31.554.075.219.113.469.113.751 0 .282-.038.533-.113.752a1.572 1.572 0 0 1-.31.549 1.377 1.377 0 0 1-1.026.454c-.198 0-.386-.039-.563-.117a1.344 1.344 0 0 1-.463-.337 1.573 1.573 0 0 1-.311-.549 2.318 2.318 0 0 1-.112-.752zm-.81 0c0 .342.048.66.144.954.096.294.24.551.432.77.192.219.429.39.711.513s.606.184.972.184a2.4 2.4 0 0 0 .976-.184c.279-.123.515-.294.707-.513a2.18 2.18 0 0 0 .432-.77c.096-.294.144-.612.144-.954 0-.342-.048-.661-.144-.958a2.172 2.172 0 0 0-.432-.774 2.049 2.049 0 0 0-.707-.518 2.35 2.35 0 0 0-.976-.189c-.366 0-.69.063-.972.189a2.036 2.036 0 0 0-.711.518 2.172 2.172 0 0 0-.432.774 3.096 3.096 0 0 0-.144.958z" fill="#fff" fill-rule="nonzero"/></svg>