<?xml version="1.0" encoding="utf-8"?><svg width="100%" height="100%" version="1.1" viewBox="5 5 502 502" style="background-color:#FFFFFF" xmlns:xlink="http://www.w3.org/1999/xlink" xmlns="http://www.w3.org/2000/svg"><defs /><g id="layer1"><path d="M256 8 C119.043 8 8 119.083 8 256 C8 392.997 119.043 504 256 504 C392.957 504 504 392.997 504 256 C504 119.083 392.957 8 256 8 Z M256 456 C145.468 456 56 366.569 56 256 C56 145.505 145.472 56 256 56 C366.491 56 456 145.471 456 256 C456 366.53 366.569 456 256 456 Z M363.244 200.8 C363.244 267.852 290.823 268.884 290.823 293.663 L290.823 300 C290.823 306.627 285.45 312 278.823 312 L233.176 312 C226.549 312 221.176 306.627 221.176 300 L221.176 291.341 C221.176 255.596 248.276 241.307 268.755 229.825 C286.316 219.98 297.079 213.284 297.079 200.246 C297.079 183 275.08 171.553 257.295 171.553 C234.106 171.553 223.401 182.53 208.353 201.522 C204.296 206.642 196.893 207.593 191.687 203.646 L163.863 182.548 C158.756 178.676 157.612 171.482 161.219 166.185 C184.846 131.491 214.94 112 261.794 112 C310.865 112 363.244 150.304 363.244 200.8 Z M298 368 C298 391.159 279.159 410 256 410 C232.841 410 214 391.159 214 368 C214 344.841 232.841 326 256 326 C279.159 326 298 344.841 298 368 Z " fill-rule="evenodd" opacity="1" fill="#808080" fill-opacity="1" /></g></svg>