<svg clip-rule="evenodd" fill-rule="evenodd" stroke-linejoin="round" stroke-miterlimit="2" viewBox="0 0 1024 1024" xmlns="http://www.w3.org/2000/svg"><path d="m896 320c0-105.968-86.032-192-192-192h-384c-105.968 0-192 86.032-192 192v384c0 105.968 86.032 192 192 192h384c105.968 0 192-86.032 192-192z" fill="#0099a9" transform="matrix(1.08333 0 0 1.08333 -42.6667 -42.6667)"/><g fill="#fff" fill-rule="nonzero" transform="matrix(7.78776651 0 0 7.78776651 -614.074814 1821.155316)"><path d="m129.219-188.727 13.691 23.785c.34.59.977.957 1.656.957.68 0 1.313-.367 1.653-.957l14.714-25.469h5.985l-22.586 39.707c-1.25.285-2.188 1.399-2.188 2.731 0 1.551 1.262 2.808 2.809 2.808s2.805-1.257 2.805-2.808c0-.282-.055-.547-.133-.805l24.234-42.598c.336-.589.332-1.32-.008-1.906-.34-.582-.972-.949-1.652-.949h-10.367c-.68 0-1.313.367-1.653.957l-13.609 23.559-12.121-21.059c.059-.227.098-.461.098-.707 0-1.547-1.258-2.805-2.805-2.805-.211 0-.418.028-.613.071-.254.031-.5.109-.727.242-.133.074-.254.172-.363.277-.668.512-1.106 1.313-1.106 2.215 0 1.371.989 2.512 2.285 2.754"/><path d="m184.273-191.368c0-1.547-1.257-2.804-2.804-2.804s-2.809 1.257-2.809 2.804c0 .285.055.555.137.817l-27.09 47.043c-1.508 2.625-4.211 4.191-7.242 4.191-3.028 0-5.735-1.57-7.239-4.199l-26.851-46.895h6.762l15.035 26.547c-.102.293-.168.598-.168.926 0 1.547 1.262 2.805 2.808 2.805 1.547 0 2.805-1.258 2.805-2.805 0-1.289-.875-2.367-2.059-2.695l-15.648-27.629c-.34-.594-.977-.965-1.664-.965h-11.164c-.68 0-1.309.363-1.649.949-.343.586-.343 1.316-.008 1.906l28.489 49.754c2.191 3.828 6.136 6.117 10.551 6.117h.004c4.41 0 8.355-2.281 10.546-6.105l27.083-47.031c1.246-.289 2.175-1.399 2.175-2.731"/></g></svg>